# xmcd
#
# Track frame offsets: 
#        182
#        17642
#        28957
#        50730
#        82985
#        127905
#        143512
#        157660
#        193222
#        208105
#        243037
#        273232
#
# Disc length: 4004 seconds
#
# Revision: 2
# Processed by: cddbd v1.5.2PL0 Copyright (c) Steve Scherf et al.
# Submitted via: ExactAudioCopy v0.90b4
#
DISCID=990fa20c
DTITLE=Todd Fletcher - Byzantium
DYEAR=1993
DGENRE=Progressive Rock
TTITLE0=Firesongs
TTITLE1=Intersect
TTITLE2=Byzantium
TTITLE3=Airspirit
TTITLE4=Sandocean
TTITLE5=Lapisound
TTITLE6=Udinattar
TTITLE7=Redrhythm
TTITLE8=Subvoiced
TTITLE9=kohinoori
TTITLE10=Thunderer
TTITLE11=Sereplace
EXTD=
EXTT0=
EXTT1=
EXTT2=
EXTT3=
EXTT4=
EXTT5=
EXTT6=
EXTT7=
EXTT8=
EXTT9=
EXTT10=
EXTT11=
PLAYORDER=
